HIERARCHY
ROOT Root
{
  OFFSET 0.0 0.0 0.0
  CHANNELS 6 Xposition Yposition Zposition Zrotation Yrotation Xrotation
  JOINT Hips
  {
    OFFSET 0.0 100.0 0.0
    CHANNELS 6 Xposition Yposition Zposition Zrotation Yrotation Xrotation
    JOINT Spine1
    {
      OFFSET -0.013727 5.003763 -0.053727
      CHANNELS 3 Zrotation Yrotation Xrotation
      JOINT Spine2
      {
        OFFSET -0.0 7.125301 -0.029825
        CHANNELS 3 Zrotation Yrotation Xrotation
        JOINT Chest
        {
          OFFSET -1e-06 7.550063 -0.815971
          CHANNELS 3 Zrotation Yrotation Xrotation
          JOINT Neck1
          {
            OFFSET -0.181677 26.311295 -0.553348
            CHANNELS 3 Zrotation Yrotation Xrotation
            JOINT Neck2
            {
              OFFSET -3e-06 7.709397 2.302585
              CHANNELS 3 Zrotation Yrotation Xrotation
              JOINT Head
              {
                OFFSET -5e-06 6.128916 1.953709
                CHANNELS 3 Zrotation Yrotation Xrotation
                JOINT HeadEnd
                {
                  OFFSET 0.003598 16.065403 -1.835379
                  CHANNELS 3 Zrotation Yrotation Xrotation
                }
                JOINT Jaw
                {
                  OFFSET 0.002637 0.475592 3.094941
                  CHANNELS 3 Zrotation Yrotation Xrotation
                }
                JOINT LeftEye
                {
                  OFFSET 3.206381 5.380205 7.586883
                  CHANNELS 3 Zrotation Yrotation Xrotation
                }
                JOINT RightEye
                {
                  OFFSET -3.22244 5.361869 7.558234
                  CHANNELS 3 Zrotation Yrotation Xrotation
                }
              }
            }
          }
          JOINT LeftShoulder
          {
            OFFSET 1.621652 23.237164 5.113413
            CHANNELS 3 Zrotation Yrotation Xrotation
            JOINT LeftArm
            {
              OFFSET 14.919846 2e-06 -5.502326
              CHANNELS 3 Zrotation Yrotation Xrotation
              JOINT LeftForeArm
              {
                OFFSET 28.739307 0.0 -0.002588
                CHANNELS 3 Zrotation Yrotation Xrotation
                JOINT LeftHand
                {
                  OFFSET 27.093981 -1e-06 0.002609
                  CHANNELS 3 Zrotation Yrotation Xrotation
                  JOINT LeftHandThumb1
                  {
                    OFFSET 2.276482 -1.392045 3.191413
                    CHANNELS 3 Zrotation Yrotation Xrotation
                    JOINT LeftHandThumb2
                    {
                      OFFSET 4.012836 -1.828127 1.641654
                      CHANNELS 3 Zrotation Yrotation Xrotation
                      JOINT LeftHandThumb3
                      {
                        OFFSET 2.798515 0.0 -3e-06
                        CHANNELS 3 Zrotation Yrotation Xrotation
                        JOINT LeftHandThumbEnd
                        {
                          OFFSET 3.180793 -4e-06 4e-06
                          CHANNELS 3 Zrotation Yrotation Xrotation
                        }
                      }
                    }
                  }
                  JOINT LeftHandIndex1
                  {
                    OFFSET 3.247555 -0.531998 2.296169
                    CHANNELS 3 Zrotation Yrotation Xrotation
                    JOINT LeftHandIndex2
                    {
                      OFFSET 6.364578 0.01206 0.1786
                      CHANNELS 3 Zrotation Yrotation Xrotation
                      JOINT LeftHandIndex3
                      {
                        OFFSET 3.662364 0.0 0.0
                        CHANNELS 3 Zrotation Yrotation Xrotation
                        JOINT LeftHandIndex4
                        {
                          OFFSET 2.329242 4e-06 4e-06
                          CHANNELS 3 Zrotation Yrotation Xrotation
                          JOINT LeftHandIndexEnd
                          {
                            OFFSET 2.759615 -0.180537 -0.113024
                            CHANNELS 3 Zrotation Yrotation Xrotation
                          }
                        }
                      }
                    }
                  }
                  JOINT LeftHandMiddle1
                  {
                    OFFSET 3.163495 0.240981 1.000332
                    CHANNELS 3 Zrotation Yrotation Xrotation
                    JOINT LeftHandMiddle2
                    {
                      OFFSET 6.19078 -0.259278 -1.002548
                      CHANNELS 3 Zrotation Yrotation Xrotation
                      JOINT LeftHandMiddle3
                      {
                        OFFSET 4.35652 -4e-06 -1e-06
                        CHANNELS 3 Zrotation Yrotation Xrotation
                        JOINT LeftHandMiddle4
                        {
                          OFFSET 2.996877 -8e-06 0.0
                          CHANNELS 3 Zrotation Yrotation Xrotation
                          JOINT LeftHandMiddleEnd
                          {
                            OFFSET 2.304287 -0.294569 -0.031741
                            CHANNELS 3 Zrotation Yrotation Xrotation
                          }
                        }
                      }
                    }
                  }
                  JOINT LeftHandRing1
                  {
                    OFFSET 2.882643 -0.053652 -0.322543
                    CHANNELS 3 Zrotation Yrotation Xrotation
                    JOINT LeftHandRing2
                    {
                      OFFSET 5.854541 -0.486202 -1.373841
                      CHANNELS 3 Zrotation Yrotation Xrotation
                      JOINT LeftHandRing3
                      {
                        OFFSET 4.350578 0.0 3e-06
                        CHANNELS 3 Zrotation Yrotation Xrotation
                        JOINT LeftHandRing4
                        {
                          OFFSET 2.651321 7e-06 2e-06
                          CHANNELS 3 Zrotation Yrotation Xrotation
                          JOINT LeftHandRingEnd
                          {
                            OFFSET 1.936105 0.077687 -7.1e-05
                            CHANNELS 3 Zrotation Yrotation Xrotation
                          }
                        }
                      }
                    }
                  }
                  JOINT LeftHandPinky1
                  {
                    OFFSET 2.8655 -0.310005 -1.600378
                    CHANNELS 3 Zrotation Yrotation Xrotation
                    JOINT LeftHandPinky2
                    {
                      OFFSET 5.087849 -1.331141 -1.77123
                      CHANNELS 3 Zrotation Yrotation Xrotation
                      JOINT LeftHandPinky3
                      {
                        OFFSET 3.070974 4e-06 0.0
                        CHANNELS 3 Zrotation Yrotation Xrotation
                        JOINT LeftHandPinky4
                        {
                          OFFSET 1.549672 0.0 1e-06
                          CHANNELS 3 Zrotation Yrotation Xrotation
                          JOINT LeftHandPinkyEnd
                          {
                            OFFSET 1.944893 -0.157802 0.057219
                            CHANNELS 3 Zrotation Yrotation Xrotation
                          }
                        }
                      }
                    }
                  }
                }
              }
            }
          }
          JOINT RightShoulder
          {
            OFFSET -1.380118 23.180309 5.214158
            CHANNELS 3 Zrotation Yrotation Xrotation
            JOINT RightArm
            {
              OFFSET -15.037196 1.2e-05 -5.545604
              CHANNELS 3 Zrotation Yrotation Xrotation
              JOINT RightForeArm
              {
                OFFSET -28.736639 2e-06 -0.002597
                CHANNELS 3 Zrotation Yrotation Xrotation
                JOINT RightHand
                {
                  OFFSET -27.133619 -0.0 0.002613
                  CHANNELS 3 Zrotation Yrotation Xrotation
                  JOINT RightHandThumb1
                  {
                    OFFSET -2.274032 -1.383988 3.163127
                    CHANNELS 3 Zrotation Yrotation Xrotation
                    JOINT RightHandThumb2
                    {
                      OFFSET -4.011429 -1.827466 1.640914
                      CHANNELS 3 Zrotation Yrotation Xrotation
                      JOINT RightHandThumb3
                      {
                        OFFSET -2.794935 -4e-06 -3e-06
                        CHANNELS 3 Zrotation Yrotation Xrotation
                        JOINT RightHandThumbEnd
                        {
                          OFFSET -3.183852 4e-06 1e-06
                          CHANNELS 3 Zrotation Yrotation Xrotation
                        }
                      }
                    }
                  }
                  JOINT RightHandIndex1
                  {
                    OFFSET -3.253266 -0.520057 2.282866
                    CHANNELS 3 Zrotation Yrotation Xrotation
                    JOINT RightHandIndex2
                    {
                      OFFSET -6.341917 0.012471 0.178266
                      CHANNELS 3 Zrotation Yrotation Xrotation
                      JOINT RightHandIndex3
                      {
                        OFFSET -3.654871 -8e-06 -0.0
                        CHANNELS 3 Zrotation Yrotation Xrotation
                        JOINT RightHandIndex4
                        {
                          OFFSET -2.327586 0.0 1e-06
                          CHANNELS 3 Zrotation Yrotation Xrotation
                          JOINT RightHandIndexEnd
                          {
                            OFFSET -2.76179 -0.180656 -0.113078
                            CHANNELS 3 Zrotation Yrotation Xrotation
                          }
                        }
                      }
                    }
                  }
                  JOINT RightHandMiddle1
                  {
                    OFFSET -3.168106 0.246593 1.00103
                    CHANNELS 3 Zrotation Yrotation Xrotation
                    JOINT RightHandMiddle2
                    {
                      OFFSET -6.180828 -0.258836 -1.000895
                      CHANNELS 3 Zrotation Yrotation Xrotation
                      JOINT RightHandMiddle3
                      {
                        OFFSET -4.348901 0.0 -0.0
                        CHANNELS 3 Zrotation Yrotation Xrotation
                        JOINT RightHandMiddle4
                        {
                          OFFSET -3.00024 -4e-06 -2e-06
                          CHANNELS 3 Zrotation Yrotation Xrotation
                          JOINT RightHandMiddleEnd
                          {
                            OFFSET -2.30252 -0.29437 -0.031706
                            CHANNELS 3 Zrotation Yrotation Xrotation
                          }
                        }
                      }
                    }
                  }
                  JOINT RightHandRing1
                  {
                    OFFSET -2.88569 -0.067952 -0.308858
                    CHANNELS 3 Zrotation Yrotation Xrotation
                    JOINT RightHandRing2
                    {
                      OFFSET -5.854198 -0.48613 -1.373731
                      CHANNELS 3 Zrotation Yrotation Xrotation
                      JOINT RightHandRing3
                      {
                        OFFSET -4.33881 -4e-06 -0.0
                        CHANNELS 3 Zrotation Yrotation Xrotation
                        JOINT RightHandRing4
                        {
                          OFFSET -2.654903 -4e-06 4e-06
                          CHANNELS 3 Zrotation Yrotation Xrotation
                          JOINT RightHandRingEnd
                          {
                            OFFSET -1.933568 0.077527 -5.2e-05
                            CHANNELS 3 Zrotation Yrotation Xrotation
                          }
                        }
                      }
                    }
                  }
                  JOINT RightHandPinky1
                  {
                    OFFSET -2.866425 -0.342796 -1.584145
                    CHANNELS 3 Zrotation Yrotation Xrotation
                    JOINT RightHandPinky2
                    {
                      OFFSET -5.091371 -1.332055 -1.772385
                      CHANNELS 3 Zrotation Yrotation Xrotation
                      JOINT RightHandPinky3
                      {
                        OFFSET -3.062664 -4e-06 1e-06
                        CHANNELS 3 Zrotation Yrotation Xrotation
                        JOINT RightHandPinky4
                        {
                          OFFSET -1.546529 4e-06 -2e-06
                          CHANNELS 3 Zrotation Yrotation Xrotation
                          JOINT RightHandPinkyEnd
                          {
                            OFFSET -1.945119 -0.157718 0.057211
                            CHANNELS 3 Zrotation Yrotation Xrotation
                          }
                        }
                      }
                    }
                  }
                }
              }
            }
          }
        }
      }
    }
    JOINT LeftLeg
    {
      OFFSET 10.043214 -8.434526 2.595655
      CHANNELS 3 Zrotation Yrotation Xrotation
      JOINT LeftShin
      {
        OFFSET -1e-06 -43.221752 -0.802913
        CHANNELS 3 Zrotation Yrotation Xrotation
        JOINT LeftFoot
        {
          OFFSET 1e-06 -42.155094 -3.481523
          CHANNELS 3 Zrotation Yrotation Xrotation
          JOINT LeftToeBase
          {
            OFFSET 0.0 -5.059472 13.231529
            CHANNELS 3 Zrotation Yrotation Xrotation
            JOINT LeftToeEnd
            {
              OFFSET -0.009607 -1.647619 6.513017
              CHANNELS 3 Zrotation Yrotation Xrotation
            }
          }
        }
      }
    }
    JOINT RightLeg
    {
      OFFSET -10.047278 -8.29526 2.620317
      CHANNELS 3 Zrotation Yrotation Xrotation
      JOINT RightShin
      {
        OFFSET 1e-06 -43.362206 -0.805556
        CHANNELS 3 Zrotation Yrotation Xrotation
        JOINT RightFoot
        {
          OFFSET 2e-06 -42.117393 -3.478398
          CHANNELS 3 Zrotation Yrotation Xrotation
          JOINT RightToeBase
          {
            OFFSET -0.0 -5.079609 13.284196
            CHANNELS 3 Zrotation Yrotation Xrotation
            JOINT RightToeEnd
            {
              OFFSET 0.009532 -1.634378 6.460591
              CHANNELS 3 Zrotation Yrotation Xrotation
            }
          }
        }
      }
    }
  }
}
MOTION
Frames: 5
Frame Time: 0.03333333333333333
0.0 0.0 0.0 0.0 -0.0 0.0 -3.182156 87.313507 55.398613 -3.80267 5.452999 54.578236 1.960321 0.836233 8.358601 -0.232752 -1.218332 3.350569 -0.645687 -1.789636 30.351755 -1.222352 3.924915 -24.438038 -1.849773 -1.047906 -3.562329 -1.731456 -1.512661 9.672314 7.7e-05 -2.3e-05 6e-06 -0.014492 -0.001974 -0.19685 1.013015 -3.826353 -11.08053 -1.047012 3.836625 -11.044374 50.206383 -5.412146 -2.470391 -17.390062 -10.568396 -89.192734 -0.697126 -22.389721 2.243722 40.271645 -3.508886 -43.036835 -5.88211 9.861293 0.702591 -10.936883 -0.360577 7.156215 3e-06 8.774833 2e-06 -13.408166 18.321772 7.821783 -1.844032 2.498505 -2.507281 -10.16361 4.678948 4.621116 -20.97604 -5e-06 1e-05 -21.226301 2.451701 -3.593996 0.0 -6e-06 -0.0 -1.362682 2.240799 -0.746325 -21.334934 0.584908 3.00833 -13.821227 -4e-06 5e-06 -23.887192 -0.249078 -0.839478 -59.228745 2.391565 -1.469462 -0.294024 1.679688 0.833256 -14.218221 0.093214 1.300586 -34.212078 -0.287564 0.967181 -20.033232 0.964539 1.212848 -0.0 -1e-06 -1e-06 -3.440392 0.788234 0.501655 -15.928201 -3.167315 2.999715 -6.338832 -1e-06 2e-06 -18.123459 3.648185 -4.90567 -4e-06 0.0 -2e-06 -43.074013 17.630459 -5.148932 11.370937 20.765339 -98.658066 -0.378022 40.243046 -0.984792 -59.950287 -40.350681 -3.220385 2.243541 -5.25504 -3.180162 14.282896 -0.826591 6.95251 -5e-06 -12.690611 -1e-06 14.549892 -17.670782 3.526329 1.665666 -1.955923 -2.878301 4.7278 -4.170588 4.993928 11.020531 4e-06 -2e-06 12.109056 -3.735715 -2.866787 1e-06 -0.0 -1e-06 1.291986 -1.928551 -1.498091 14.800138 0.567472 3.865613 14.242578 -1.341733 -6.660662 19.631973 0.143931 -0.648242 52.644535 -1.268883 -5.168903 0.353028 -1.511152 -0.031941 20.222803 3.684318 2.316635 18.787283 8e-06 3e-06 10.751634 -0.479866 1.397909 -1e-06 1e-06 -0.0 3.273808 0.305948 -0.580112 21.486828 11.830388 2.266141 8.16293 4e-06 -0.0 18.399088 -3.798984 -4.940575 3e-06 -1e-06 -1e-06 0.089864 15.110788 -41.522057 -0.078142 -0.986067 26.147593 -11.969924 0.606954 -34.058723 1.760739 -2.01791 2.568323 -0.0 0.0 2e-06 16.489485 3.000159 -90.911011 -0.414188 -0.476753 53.217209 -11.166632 9.793462 -17.371925 -1.428618 0.840043 5.810348 0.0 0.0 -1e-06 
0.0 0.0 0.0 0.0 -0.0 0.0 -3.109681 87.161186 55.158951 -3.49026 5.771058 54.434071 1.989437 0.81238 8.473668 -0.179375 -1.2358 3.399252 -0.495553 -1.857128 30.447996 -1.394091 3.853843 -24.170225 -1.951939 -1.317275 -3.540315 -1.723153 -1.790958 9.72409 7.7e-05 -2.3e-05 6e-06 -0.020626 6.8e-05 -0.196609 1.012627 -3.8219 -11.082913 -1.059511 3.83721 -11.063728 50.183876 -5.351113 -2.521021 -16.876743 -10.943423 -89.065865 -0.724691 -22.436209 2.276377 40.393539 -3.370808 -42.676033 -5.882109 9.861292 0.702592 -10.936881 -0.360577 7.156214 2e-06 8.774834 0.0 -13.335898 18.342171 7.791139 -1.844033 2.498508 -2.507279 -10.163607 4.678947 4.621114 -20.976038 -5e-06 8e-06 -21.226303 2.451699 -3.594 0.0 -6e-06 -1e-06 -1.362682 2.240802 -0.746325 -21.334929 0.584909 3.00833 -13.821224 -4e-06 3e-06 -23.887186 -0.249079 -0.839476 -59.16135 2.359822 -1.517978 -0.294023 1.679689 0.833257 -14.218222 0.093211 1.300584 -34.212082 -0.287567 0.96718 -20.033232 0.964536 1.212851 1e-06 -1e-06 -2e-06 -3.440391 0.788233 0.501657 -15.928201 -3.167315 2.999712 -6.338832 -2e-06 0.0 -18.123459 3.648183 -4.905671 -4e-06 -0.0 -2e-06 -42.587463 17.459682 -4.709668 11.244493 20.505207 -98.811409 -0.263217 40.323833 -1.041236 -59.594734 -40.042778 -3.610166 2.243541 -5.255037 -3.180159 14.282894 -0.826592 6.952504 -5e-06 -12.690607 -0.0 14.559755 -17.647972 3.466422 1.665667 -1.955921 -2.878298 4.727798 -4.170588 4.993924 11.020528 4e-06 -1e-06 12.109053 -3.735715 -2.866783 1e-06 1e-06 0.0 1.291985 -1.92855 -1.498088 14.800134 0.567471 3.86561 14.242576 -1.341735 -6.660656 19.631973 0.143927 -0.648241 52.658241 -1.262857 -5.18658 0.353029 -1.511152 -0.031938 20.222797 3.684315 2.316631 18.787273 7e-06 3e-06 10.751634 -0.479869 1.397907 -1e-06 1e-06 -0.0 3.273808 0.305948 -0.580111 21.48682 11.830384 2.266135 8.162931 2e-06 -1e-06 18.399086 -3.798983 -4.940575 3e-06 -2e-06 -1e-06 -0.014985 14.926127 -42.093857 -0.092473 -0.982078 27.329878 -11.88605 0.405827 -34.509777 1.754585 -2.019969 2.548168 0.0 -1e-06 2e-06 16.369766 2.605294 -91.3153 -0.413684 -0.475605 53.800045 -11.090437 9.66833 -17.481077 -1.430364 0.846942 5.851724 0.0 0.0 -1e-06 
0.0 0.0 0.0 0.0 -0.0 0.0 -3.030336 86.948158 54.898972 -3.117807 6.104488 54.265648 2.03805 0.792812 8.594315 -0.114486 -1.243779 3.435576 -0.284973 -1.945733 30.552057 -1.726448 3.727309 -23.889355 -2.057207 -1.548894 -3.529617 -1.721199 -2.066612 9.78759 7.7e-05 -2.3e-05 6e-06 -0.025274 0.003405 -0.197601 1.009742 -3.814725 -11.08084 -1.066023 3.837419 -11.073398 50.029007 -5.297948 -2.593755 -16.363901 -11.457263 -88.927879 -0.744639 -22.577101 2.379224 40.544441 -3.149347 -42.350628 -5.882109 9.861283 0.702592 -10.936868 -0.360571 7.156207 -1e-06 8.77482 -1e-06 -13.298596 18.415707 7.772338 -1.844031 2.498506 -2.507279 -10.163597 4.678946 4.621109 -20.976021 1e-06 3e-06 -21.226284 2.4517 -3.594001 1e-06 -6e-06 -1e-06 -1.362681 2.240798 -0.746323 -21.334911 0.584915 3.008325 -13.821213 -0.0 1e-06 -23.887165 -0.249072 -0.839484 -59.164738 2.332624 -1.587821 -0.294025 1.679687 0.833257 -14.218207 0.093218 1.300581 -34.212048 -0.287555 0.967169 -20.033211 0.964542 1.212841 -0.0 -2e-06 -2e-06 -3.440388 0.788236 0.501656 -15.928185 -3.167305 2.999709 -6.338825 1e-06 1e-06 -18.123444 3.648185 -4.905669 -4e-06 -0.0 -2e-06 -42.124249 17.325584 -4.310146 11.047186 20.188269 -99.228432 -0.096972 40.532681 -1.045987 -59.534286 -39.406837 -3.754558 2.243543 -5.255037 -3.18016 14.282889 -0.826594 6.952506 -2e-06 -12.690603 -1e-06 14.545228 -17.62973 3.402521 1.665666 -1.955923 -2.8783 4.7278 -4.170587 4.993923 11.020528 2e-06 -1e-06 12.109057 -3.735717 -2.866787 1e-06 -0.0 0.0 1.291986 -1.92855 -1.49809 14.800129 0.567466 3.865607 14.242577 -1.341738 -6.660661 19.631969 0.143925 -0.648247 52.616486 -1.25345 -5.237172 0.353029 -1.51115 -0.03194 20.222794 3.684308 2.31663 18.78727 4e-06 -2e-06 10.751627 -0.479868 1.397905 -2e-06 1e-06 -0.0 3.273807 0.305947 -0.580112 21.486816 11.830373 2.266135 8.16293 0.0 -2e-06 18.399084 -3.798985 -4.940577 3e-06 -1e-06 -1e-06 -0.173421 14.745873 -42.710983 -0.100075 -0.954812 28.659361 -11.798356 0.092727 -35.103321 1.747707 -2.017482 2.553035 -0.0 0.0 2e-06 16.196487 2.161216 -91.818497 -0.423152 -0.47555 54.576492 -11.010914 9.505303 -17.664988 -1.429859 0.8677 5.877742 0.0 0.0 -1e-06 
0.0 0.0 0.0 0.0 -0.0 0.0 -2.938025 86.666664 54.617546 -2.736448 6.4146 54.056076 2.108724 0.777812 8.686383 -0.037576 -1.247355 3.468717 -0.050415 -2.024492 30.676279 -2.203794 3.569623 -23.609573 -2.119027 -1.718773 -3.523957 -1.748244 -2.305874 9.848433 7.7e-05 -2.3e-05 6e-06 -0.021546 0.006489 -0.196449 1.012396 -3.804042 -11.063749 -1.060766 3.832782 -11.059907 49.790085 -5.298735 -2.668753 -15.953649 -12.080038 -88.677628 -0.716246 -22.816504 2.51244 40.763924 -2.832297 -42.162655 -5.882109 9.86129 0.702589 -10.936878 -0.360576 7.156213 2e-06 8.77483 -1e-06 -13.333814 18.511269 7.746503 -1.844035 2.498504 -2.507279 -10.163606 4.678946 4.62111 -20.976038 -5e-06 3e-06 -21.226299 2.451698 -3.594002 1e-06 -6e-06 -1e-06 -1.362682 2.240801 -0.746324 -21.334929 0.584908 3.008326 -13.821223 -5e-06 1e-06 -23.887186 -0.249082 -0.839483 -59.259247 2.301591 -1.648829 -0.294024 1.679687 0.833256 -14.21822 0.093213 1.300581 -34.21207 -0.287566 0.967172 -20.033226 0.964535 1.212847 1e-06 -1e-06 -2e-06 -3.440391 0.788231 0.501656 -15.9282 -3.167313 2.99971 -6.338831 -1e-06 1e-06 -18.123459 3.648183 -4.905674 -4e-06 -0.0 -2e-06 -41.733791 17.282511 -3.963745 10.780854 19.849283 -99.802498 0.034491 40.781158 -1.049898 -59.741138 -38.594921 -3.72908 2.243542 -5.255038 -3.180159 14.282892 -0.826593 6.952504 -3e-06 -12.690607 -2e-06 14.509972 -17.601282 3.363308 1.665666 -1.955923 -2.878301 4.727798 -4.170588 4.993925 11.020528 4e-06 -3e-06 12.109056 -3.735715 -2.866785 1e-06 1e-06 0.0 1.291986 -1.92855 -1.498091 14.800132 0.56747 3.865608 14.242572 -1.341736 -6.660659 19.631971 0.143927 -0.648245 52.557468 -1.228479 -5.287756 0.353029 -1.511151 -0.03194 20.222797 3.684313 2.316631 18.787279 7e-06 -1e-06 10.751629 -0.479869 1.397907 -1e-06 1e-06 -0.0 3.273807 0.305947 -0.580111 21.48682 11.830379 2.266136 8.16293 4e-06 -2e-06 18.399084 -3.798985 -4.940576 2e-06 -1e-06 -1e-06 -0.359278 14.590416 -43.357094 -0.106536 -0.90648 30.162676 -11.709731 -0.263 -35.884846 1.742617 -2.011095 2.554874 0.0 0.0 2e-06 15.971849 1.715604 -92.390587 -0.442957 -0.486547 55.536823 -10.928233 9.320989 -17.915945 -1.427848 0.893219 5.87222 0.0 0.0 -1e-06 
0.0 0.0 0.0 0.0 -0.0 0.0 -2.833942 86.343887 54.302452 -2.359521 6.701167 53.75721 2.205923 0.76667 8.747732 0.069014 -1.254741 3.489352 0.192366 -2.075968 30.828421 -2.776293 3.4134 -23.346003 -2.114384 -1.838944 -3.515034 -1.847899 -2.48551 9.944103 7.7e-05 -2.3e-05 6e-06 -0.004754 0.006753 -0.194147 1.02409 -3.792735 -11.028784 -1.038654 3.821335 -11.02667 49.489689 -5.404008 -2.778218 -15.713976 -12.823313 -88.190758 -0.641097 -23.154547 2.624205 40.980026 -2.522184 -41.772274 -5.882108 9.861295 0.702592 -10.936881 -0.360577 7.156213 1e-06 8.774833 -1e-06 -13.390729 18.60924 7.729277 -1.844033 2.498507 -2.507279 -10.163607 4.678948 4.621114 -20.976038 -6e-06 5e-06 -21.226301 2.451698 -3.594002 0.0 -6e-06 -0.0 -1.362684 2.240799 -0.746323 -21.33493 0.58491 3.00833 -13.821225 -4e-06 2e-06 -23.887192 -0.249078 -0.839478 -59.397854 2.261231 -1.666591 -0.294027 1.679687 0.833257 -14.21822 0.093213 1.300584 -34.212074 -0.287564 0.967176 -20.03323 0.964538 1.212846 1e-06 -1e-06 -3e-06 -3.440392 0.788233 0.501656 -15.928196 -3.167314 2.999714 -6.338831 -1e-06 1e-06 -18.123459 3.648185 -4.905672 -4e-06 0.0 -2e-06 -41.389511 17.358267 -3.639909 10.381703 19.508551 -100.312202 0.039047 40.860226 -1.110239 -60.059235 -37.853725 -3.774287 2.243541 -5.255039 -3.180159 14.282896 -0.826595 6.952507 -3e-06 -12.690612 1e-06 14.466491 -17.571238 3.36311 1.665667 -1.955922 -2.878299 4.727799 -4.170591 4.993927 11.020529 4e-06 -1e-06 12.109055 -3.735716 -2.866784 1e-06 1e-06 0.0 1.291986 -1.92855 -1.498089 14.800132 0.567468 3.86561 14.242575 -1.341735 -6.660658 19.631973 0.143927 -0.648241 52.537838 -1.214044 -5.326051 0.353029 -1.511152 -0.031939 20.222797 3.684314 2.316633 18.787277 5e-06 3e-06 10.751633 -0.479869 1.397907 -0.0 -0.0 -0.0 3.273807 0.305947 -0.580112 21.48682 11.830384 2.266135 8.16293 2e-06 -1e-06 18.399088 -3.79899 -4.940576 2e-06 -1e-06 -0.0 -0.566357 14.4935 -43.967548 -0.118094 -0.853986 31.783424 -11.588013 -0.63677 -36.781757 1.737452 -2.003274 2.542097 0.0 0.0 2e-06 15.720778 1.253231 -92.946747 -0.465572 -0.510164 56.602398 -10.869864 9.146721 -18.198057 -1.425194 0.913412 5.86201 0.0 0.0 -1e-06 
